<svg width="84" height="84" viewBox="0 0 84 84" fill="none" xmlns="http://www.w3.org/2000/svg">
<path d="M25.4297 2.70703V5.41406H20.918H16.4062V8.12109V10.8281H13.6172H10.8281V13.6172V16.4062H8.12109H5.41406V20.918V25.4297H2.70703H0V42V58.5703H2.70703H5.41406V63.082V67.5938H8.12109H10.8281V70.3828V73.1719H13.6172H16.4062V75.8789V78.5859H20.918H25.4297V81.293V84H42H58.5703V81.293V78.5859H63.082H67.5938V75.8789V73.1719H70.3828H73.1719V70.3828V67.5938H75.8789H78.5859V63.082V58.5703H81.293H84V42V25.4297H81.293H78.5859V20.918V16.4062H75.8789H73.1719V13.6172V10.8281H70.3828H67.5938V8.12109V5.41406H63.082H58.5703V2.70703V0H42H25.4297V2.70703ZM58.4062 8.28516V10.9922H62.918H67.4297V13.7812V16.5703H70.2188H73.0078V21.082V25.5938H75.7148H78.4219V42V58.4063H75.7148H73.0078V62.918V67.4297H70.2188H67.4297V70.2188V73.0078H62.918H58.4062V75.7148V78.4219H42H25.5937V75.7148V73.0078H21.082H16.5703V70.2188V67.4297H13.7812H10.9922V62.918V58.4063H8.28516H5.57812V42V25.5938H8.28516H10.9922V21.082V16.5703H13.7812H16.5703V13.7812V10.9922H21.082H25.5937V8.28516V5.57812H42H58.4062V8.28516Z" fill="#FFFFFC"/>
<path d="M20.0156 27.3164V31.0078H16.3242H12.6328V33.7969V36.5859H16.3242H20.0156V40.2773V43.9688H22.8047H25.5937V40.2773V36.5859H29.2852H32.9766V33.7969V31.0078H29.2852H25.5937V27.3164V23.625H22.8047H20.0156V27.3164Z" fill="#FFFFFC"/>
<path d="M58.4062 27.3164V31.0078H54.7148H51.0234V33.7969V36.5859H54.7148H58.4062V40.2773V43.9688H61.1953H63.9844V40.2773V36.5859H67.6758H71.3672V33.7969V31.0078H67.6758H63.9844V27.3164V23.625H61.1953H58.4062V27.3164Z" fill="#FFFFFC"/>
<path d="M32.8125 48.3164V51.0234H30.0234H27.2344V59.3086V67.5938H30.0234H32.8125V70.3828V73.1719H42H51.1875V70.3828V67.5938H53.9766H56.7656V59.3086V51.0234H53.9766H51.1875V48.3164V45.6094H42H32.8125V48.3164ZM51.0234 59.3086V67.4297H42H32.9766V59.3086V51.1875H42H51.0234V59.3086Z" fill="#FFFFFC"/>
</svg>
