<svg width="84" height="86" viewBox="0 0 84 86" fill="none" xmlns="http://www.w3.org/2000/svg">
<g opacity="0.6">
<path d="M25.4297 3.70703V6.41407H20.918H16.4062V9.1211V11.8281H13.6172H10.8281V14.6172V17.4063H8.12109H5.41406V21.918V26.4297H2.70703H0V43V59.5703H2.70703H5.41406V64.082V68.5938H8.12109H10.8281V71.3828V74.1719H13.6172H16.4062V76.8789V79.5859H20.918H25.4297V82.293V85H42H58.5703V82.293V79.5859H63.082H67.5937V76.8789V74.1719H70.3828H73.1719V71.3828V68.5938H75.8789H78.5859V64.082V59.5703H81.293H84V43V26.4297H81.293H78.5859V21.918V17.4063H75.8789H73.1719V14.6172V11.8281H70.3828H67.5937V9.1211V6.41407H63.082H58.5703V3.70703V1H42H25.4297V3.70703ZM58.4062 9.28516V11.9922H62.918H67.4297V14.7813V17.5703H70.2187H73.0078V22.082V26.5938H75.7148H78.4219V43V59.4063H75.7148H73.0078V63.918V68.4297H70.2187H67.4297V71.2188V74.0078H62.918H58.4062V76.7148V79.4219H42H25.5937V76.7148V74.0078H21.082H16.5703V71.2188V68.4297H13.7812H10.9922V63.918V59.4063H8.28516H5.57812V43V26.5938H8.28516H10.9922V22.082V17.5703H13.7812H16.5703V14.7813V11.9922H21.082H25.5937V9.28516V6.57813H42H58.4062V9.28516Z" fill="#FFFFFC"/>
<path d="M20.0156 28.3164V32.0078H16.3242H12.6328V34.7969V37.5859H16.3242H20.0156V41.2773V44.9688H22.8047H25.5937V41.2773V37.5859H29.2852H32.9766V34.7969V32.0078H29.2852H25.5937V28.3164V24.625H22.8047H20.0156V28.3164Z" fill="#FFFFFC"/>
<path d="M58.4062 28.3164V32.0078H54.7148H51.0234V34.7969V37.5859H54.7148H58.4062V41.2773V44.9688H61.1953H63.9844V41.2773V37.5859H67.6758H71.3672V34.7969V32.0078H67.6758H63.9844V28.3164V24.625H61.1953H58.4062V28.3164Z" fill="#FFFFFC"/>
<path d="M32.8125 49.3164V52.0234H30.0234H27.2344V60.3086V68.5938H30.0234H32.8125V71.3828V74.1719H42H51.1875V71.3828V68.5938H53.9766H56.7656V60.3086V52.0234H53.9766H51.1875V49.3164V46.6094H42H32.8125V49.3164ZM51.0234 60.3086V68.4297H42H32.9766V60.3086V52.1875H42H51.0234V60.3086Z" fill="#FFFFFC"/>
</g>
</svg>
