<svg width="84" height="84" viewBox="0 0 84 84" fill="none" xmlns="http://www.w3.org/2000/svg">
<path d="M27.2344 2.70703V5.41406H21.8203H16.4062V8.12109V10.8281H13.6172H10.8281V13.6172V16.4062H8.12109H5.41406V20.0156V23.625H2.70703H0V36.5039V49.3828H2.70703H5.41406V53.0742V56.7656H8.12109H10.8281V59.4727V62.1797H13.6172H16.4062V67.5938V73.0078H13.6172H10.8281V78.5039V84H27.3984H43.9687V81.293V78.5859H50.3672H56.7656V75.8789V73.1719H62.1797H67.5938V70.3828V67.5938H70.3828H73.1719V64.8867V62.1797H75.8789H78.5859V58.4883V54.7969H81.293H84V39.2109V23.625H81.293H78.5859V20.0156V16.4062H75.8789H73.1719V13.6172V10.8281H70.3828H67.5938V8.12109V5.41406H62.1797H56.7656V2.70703V0H42H27.2344V2.70703ZM56.6016 8.28516V10.9922H62.0156H67.4297V13.7812V16.5703H70.2188H73.0078V20.1797V23.7891H75.7148H78.4219V39.2109V54.6328H75.7148H73.0078V58.3242V62.0156H70.2188H67.4297V64.7227V67.4297H62.0156H56.6016V70.2188V73.0078H50.2031H43.8047V75.7148V78.4219H30.1875H16.5703V75.7969V73.1719H19.2773H21.9844V70.3828V67.5938H24.6914H27.3984V64.8047V62.0156H21.9844H16.5703V59.3086V56.6016H13.7812H10.9922V52.9102V49.2188H8.28516H5.57812V36.5039V23.7891H8.28516H10.9922V20.1797V16.5703H13.7812H16.5703V13.7812V10.9922H21.9844H27.3984V8.28516V5.57812H42H56.6016V8.28516Z" fill="#FFFFFC"/>
<path d="M16.4062 28.3008V34.7812H20.0977H23.7891V28.3008V21.8203H20.0977H16.4062V28.3008Z" fill="#FFFFFC"/>
<path d="M60.2109 28.3008V34.7812H63.9023H67.5937V28.3008V21.8203H63.9023H60.2109V28.3008Z" fill="#FFFFFC"/>
<path d="M29.2031 42.9023V51.1875H31.9102H34.6172V53.9766V56.7656H42H49.3828V53.9766V51.1875H52.0898H54.7969V42.9023V34.6172H42H29.2031V42.9023ZM49.2188 45.6094V51.0234H42H34.7812V45.6094V40.1953H42H49.2188V45.6094Z" fill="#FFFFFC"/>
</svg>
