<svg width="84" height="85" viewBox="0 0 84 85" fill="none" xmlns="http://www.w3.org/2000/svg">
<g opacity="0.6">
<path d="M27.2344 3.08118V5.78821H21.8203H16.4062V8.49524V11.2023H13.6172H10.8281V13.9913V16.7804H8.12109H5.41406V20.3898V23.9991H2.70703H0V36.8781V49.757H2.70703H5.41406V53.4484V57.1398H8.12109H10.8281V59.8468V62.5538H13.6172H16.4062V67.9679V73.382H13.6172H10.8281V78.8781V84.3741H27.3984H43.9687V81.6671V78.9601H50.3672H56.7656V76.2531V73.546H62.1797H67.5937V70.757V67.9679H70.3828H73.1719V65.2609V62.5538H75.8789H78.5859V58.8624V55.171H81.293H84V39.5851V23.9991H81.293H78.5859V20.3898V16.7804H75.8789H73.1719V13.9913V11.2023H70.3828H67.5937V8.49524V5.78821H62.1797H56.7656V3.08118V0.374149H42H27.2344V3.08118ZM56.6016 8.65931V11.3663H62.0156H67.4297V14.1554V16.9445H70.2187H73.0078V20.5538V24.1632H75.7148H78.4219V39.5851V55.007H75.7148H73.0078V58.6984V62.3898H70.2187H67.4297V65.0968V67.8038H62.0156H56.6016V70.5929V73.382H50.2031H43.8047V76.089V78.796H30.1875H16.5703V76.171V73.546H19.2773H21.9844V70.757V67.9679H24.6914H27.3984V65.1788V62.3898H21.9844H16.5703V59.6827V56.9757H13.7812H10.9922V53.2843V49.5929H8.28516H5.57812V36.8781V24.1632H8.28516H10.9922V20.5538V16.9445H13.7812H16.5703V14.1554V11.3663H21.9844H27.3984V8.65931V5.95227H42H56.6016V8.65931Z" fill="#FFFFFC"/>
<path d="M16.4062 28.6749V35.1554H20.0977H23.7891V28.6749V22.1945H20.0977H16.4062V28.6749Z" fill="#FFFFFC"/>
<path d="M60.2109 28.6749V35.1554H63.9023H67.5937V28.6749V22.1945H63.9023H60.2109V28.6749Z" fill="#FFFFFC"/>
<path d="M29.2031 43.2765V51.5616H31.9102H34.6172V54.3507V57.1398H42H49.3828V54.3507V51.5616H52.0898H54.7969V43.2765V34.9913H42H29.2031V43.2765ZM49.2188 45.9835V51.3976H42H34.7813V45.9835V40.5695H42H49.2188V45.9835Z" fill="#FFFFFC"/>
</g>
</svg>
