<svg width="84" height="86" viewBox="0 0 84 86" fill="none" xmlns="http://www.w3.org/2000/svg">
<g opacity="0.6">
<path d="M25.4297 3.70703V6.41407H20.918H16.4062V9.1211V11.8281H13.6172H10.8281V14.6172V17.4063H8.12109H5.41406V21.918V26.4297H2.70703H0V43V59.5703H2.70703H5.41406V64.082V68.5938H8.12109H10.8281V71.3828V74.1719H13.6172H16.4062V76.8789V79.5859H20.918H25.4297V82.293V85H42H58.5703V82.293V79.5859H63.082H67.5937V76.8789V74.1719H70.3828H73.1719V71.3828V68.5938H75.8789H78.5859V64.082V59.5703H81.293H84V43V26.4297H81.293H78.5859V21.918V17.4063H75.8789H73.1719V14.6172V11.8281H70.3828H67.5937V9.1211V6.41407H63.082H58.5703V3.70703V1H42H25.4297V3.70703ZM58.4062 9.28516V11.9922H62.918H67.4297V14.7813V17.5703H70.2187H73.0078V22.082V26.5938H75.7148H78.4219V43V59.4063H75.7148H73.0078V63.918V68.4297H70.2187H67.4297V71.2188V74.0078H62.918H58.4062V76.7148V79.4219H42H25.5937V76.7148V74.0078H21.082H16.5703V71.2188V68.4297H13.7812H10.9922V63.918V59.4063H8.28516H5.57812V43V26.5938H8.28516H10.9922V22.082V17.5703H13.7812H16.5703V14.7813V11.9922H21.082H25.5937V9.28516V6.57813H42H58.4062V9.28516Z" fill="#FFFFFC"/>
<path d="M18.2109 27.4141V30.2031H15.4219H12.6328V35.6992V41.1953H15.5039H18.375V35.7813V30.3672H23.7891H29.2031V35.7813V41.1953H31.9922H34.7812V35.6992V30.2031H32.0742H29.3672V27.4141V24.625H23.7891H18.2109V27.4141Z" fill="#FFFFFC"/>
<path d="M54.6328 27.4141V30.2031H51.9258H49.2188V35.6992V41.1953H52.0078H54.7969V35.7813V30.3672H60.2109H65.625V35.7813V41.1953H68.4961H71.3672V35.6992V30.2031H68.5781H65.7891V27.4141V24.625H60.2109H54.6328V27.4141Z" fill="#FFFFFC"/>
<path d="M21.8203 54.8945V63.1797H24.5273H27.2344V65.8867V68.5938H30.0234H32.8125V71.3828V74.1719H42H51.1875V71.3828V68.5938H53.9766H56.7656V65.8867V63.1797H59.4727H62.1797V54.8945V46.6094H42H21.8203V54.8945ZM56.6016 57.6016V63.0156H53.8125H51.0234V65.7227V68.4297H42H32.9766V65.7227V63.0156H30.1875H27.3984V57.6016V52.1875H42H56.6016V57.6016Z" fill="#FFFFFC"/>
</g>
</svg>
