<svg width="84" height="84" viewBox="0 0 84 84" fill="none" xmlns="http://www.w3.org/2000/svg">
<path d="M25.4297 2.70703V5.41406H20.918H16.4062V8.12109V10.8281H13.6172H10.8281V13.6172V16.4062H8.12109H5.41406V20.918V25.4297H2.70703H0V42V58.5703H2.70703H5.41406V63.082V67.5938H8.12109H10.8281V70.3828V73.1719H13.6172H16.4062V75.8789V78.5859H20.918H25.4297V81.293V84H42H58.5703V81.293V78.5859H63.082H67.5938V75.8789V73.1719H70.3828H73.1719V70.3828V67.5938H75.8789H78.5859V63.082V58.5703H81.293H84V42V25.4297H81.293H78.5859V20.918V16.4062H75.8789H73.1719V13.6172V10.8281H70.3828H67.5938V8.12109V5.41406H63.082H58.5703V2.70703V0H42H25.4297V2.70703ZM58.4062 8.28516V10.9922H62.918H67.4297V13.7812V16.5703H70.2188H73.0078V21.082V25.5938H75.7148H78.4219V42V58.4063H75.7148H73.0078V62.918V67.4297H70.2188H67.4297V70.2188V73.0078H62.918H58.4062V75.7148V78.4219H42H25.5937V75.7148V73.0078H21.082H16.5703V70.2188V67.4297H13.7812H10.9922V62.918V58.4063H8.28516H5.57812V42V25.5938H8.28516H10.9922V21.082V16.5703H13.7812H16.5703V13.7812V10.9922H21.082H25.5937V8.28516V5.57812H42H58.4062V8.28516Z" fill="#FFFFFC"/>
<path d="M18.2109 26.4141V29.2031H15.4219H12.6328V34.6992V40.1953H15.5039H18.375V34.7813V29.3672H23.7891H29.2031V34.7813V40.1953H31.9922H34.7812V34.6992V29.2031H32.0742H29.3672V26.4141V23.625H23.7891H18.2109V26.4141Z" fill="#FFFFFC"/>
<path d="M54.6328 26.4141V29.2031H51.9258H49.2188V34.6992V40.1953H52.0078H54.7969V34.7813V29.3672H60.2109H65.625V34.7813V40.1953H68.4961H71.3672V34.6992V29.2031H68.5781H65.7891V26.4141V23.625H60.2109H54.6328V26.4141Z" fill="#FFFFFC"/>
<path d="M21.8203 53.8945V62.1797H24.5273H27.2344V64.8867V67.5938H30.0234H32.8125V70.3828V73.1719H42H51.1875V70.3828V67.5938H53.9766H56.7656V64.8867V62.1797H59.4727H62.1797V53.8945V45.6094H42H21.8203V53.8945ZM56.6016 56.6016V62.0156H53.8125H51.0234V64.7227V67.4297H42H32.9766V64.7227V62.0156H30.1875H27.3984V56.6016V51.1875H42H56.6016V56.6016Z" fill="#FFFFFC"/>
</svg>
