<svg width="60" height="86" viewBox="0 0 60 86" fill="none" xmlns="http://www.w3.org/2000/svg">
<path d="M56.5073 33.3864V18.0888C56.5073 16.0381 54.8453 14.3761 52.7946 14.3761C50.7439 14.3761 49.0819 16.0381 49.0819 18.0888V33.3864H48.6084V10.7393C48.6084 8.00061 46.3879 5.78461 43.6536 5.78461C40.9149 5.78461 38.6989 8.00508 38.6989 10.7393V33.3864H38.0377V5.96332C38.0377 3.22459 35.8172 1.00858 33.0829 1.00858C30.3442 1.00858 28.1282 3.22906 28.1282 5.96332V33.3864H27.467V9.21584C27.467 6.47711 25.2465 4.26111 22.5122 4.26111C19.778 4.26111 17.5575 6.48158 17.5575 9.21584V33.3864V41.826L16.6818 40.9503C13.3489 37.6173 7.93842 37.6173 4.60547 40.9503C3.12665 42.4291 3.12665 44.8238 4.60547 46.3027L21.5561 63.2533C22.3961 64.0932 23.3566 64.7321 24.3842 65.1744C26.0551 66.0144 27.945 66.4924 29.9421 66.4924H44.1272C50.9673 66.4924 56.5163 60.9479 56.5163 54.1034V33.3864H56.5073Z" fill="#F0C6BF"/>
<path d="M44.1227 66.4924H34.8521C34.9236 66.4075 34.9996 66.3227 35.0711 66.2378C36.7912 64.0888 37.372 61.3054 36.8314 58.7185C36.5499 60.0678 35.9691 61.359 35.0711 62.4804C32.3904 65.8267 27.9852 66.7203 24.3797 65.17C24.2546 65.1164 24.134 65.0583 24.0134 65.0002V84.4215H50.0514V64.9779C48.2911 65.9384 46.2717 66.4835 44.1272 66.4835L44.1227 66.4924Z" fill="#E99F96"/>
<path d="M4.59654 44.7032C7.92948 41.3703 13.3399 41.3703 16.6729 44.7032L24.277 52.3073C27.8691 50.7079 32.2921 51.5612 35.0041 54.8673C35.9423 56.0111 36.5454 57.338 36.8358 58.723C37.3854 56.1004 36.7778 53.2768 35.0041 51.1144C32.2921 47.8083 27.8735 46.9549 24.277 48.5544L16.6729 40.9503C13.3399 37.6173 7.92948 37.6173 4.59654 40.9503C3.36344 42.1834 3.16239 44.0598 3.98893 45.5029C4.15423 45.217 4.35081 44.9489 4.59654 44.7032Z" fill="#FFFFFC"/>
<path d="M22.5078 4.25663C19.769 4.25663 17.553 6.4771 17.553 9.21137V12.9643C17.553 10.2255 19.7735 8.00954 22.5078 8.00954C25.2465 8.00954 27.4625 10.23 27.4625 12.9643V9.21137C27.4625 6.47263 25.242 4.25663 22.5078 4.25663Z" fill="#FFFFFC"/>
<path d="M52.7946 14.3761C50.7439 14.3761 49.0819 16.0381 49.0819 18.0888V21.8417C49.0819 19.791 50.7439 18.129 52.7946 18.129C54.8453 18.129 56.5073 19.791 56.5073 21.8417V18.0888C56.5073 16.0381 54.8453 14.3761 52.7946 14.3761Z" fill="#FFFFFC"/>
<path d="M33.0829 1.00858C30.3442 1.00858 28.1282 3.22906 28.1282 5.96332V9.71623C28.1282 6.9775 30.3486 4.76149 33.0829 4.76149C35.8216 4.76149 38.0376 6.98197 38.0376 9.71623V5.96332C38.0376 3.22459 35.8172 1.00858 33.0829 1.00858Z" fill="#FFFFFC"/>
<path d="M43.6536 5.78014C40.9149 5.78014 38.6989 8.00061 38.6989 10.7349V14.4878C38.6989 11.7491 40.9193 9.53305 43.6536 9.53305C46.3923 9.53305 48.6083 11.7535 48.6083 14.4878V10.7349C48.6083 7.99614 46.3879 5.78014 43.6536 5.78014Z" fill="#FFFFFC"/>
<path d="M57.4456 18.0888C57.4456 15.5243 55.3591 13.4379 52.7946 13.4379C51.5347 13.4379 50.3865 13.9427 49.551 14.7603V10.7394C49.551 7.48683 46.9061 4.84639 43.6536 4.84639C41.7504 4.84639 40.0526 5.75334 38.9759 7.16068V5.97226C38.9759 2.71974 36.331 0.0748291 33.0829 0.0748291C29.8349 0.0748291 27.3642 2.5455 27.1944 5.64612C26.1177 4.23431 24.4155 3.32289 22.5077 3.32289C19.2552 3.32289 16.6148 5.96779 16.6148 9.22032V39.6368C12.8976 36.6121 7.3978 36.8266 3.9353 40.2891C3.04175 41.1826 2.55029 42.3666 2.55029 43.6309C2.55029 44.8953 3.04175 46.0793 3.9353 46.9728L20.8859 63.9235C20.9485 63.986 21.0244 64.0352 21.1004 64.0798C21.7125 64.6249 22.3737 65.1119 23.0751 65.5363V84.4349C23.0751 84.9532 23.4951 85.3732 24.0134 85.3732H50.0514C50.5697 85.3732 50.9897 84.9532 50.9897 84.4349V65.5363C54.9883 63.1282 57.45 58.8034 57.45 54.1123V18.0888H57.4456ZM49.5957 64.1603C49.2964 64.3256 49.1087 64.6428 49.1087 64.9823V83.4878H24.9471V64.9823C24.9471 64.6383 24.7595 64.3211 24.4601 64.1603C23.647 63.718 22.8875 63.1729 22.2039 62.5429C22.1593 62.5027 22.1146 62.4715 22.0654 62.4402L5.26222 45.637C4.72609 45.1008 4.42675 44.386 4.42675 43.622C4.42675 42.858 4.72162 42.1477 5.26222 41.6071C8.22434 38.6449 13.0495 38.6449 16.0116 41.6071L16.8873 42.4827L23.6113 49.2112C23.8838 49.4882 24.2993 49.5641 24.6567 49.4033C27.9941 47.92 31.9481 48.8627 34.2758 51.6997C36.6884 54.6395 36.7107 58.9241 34.3384 61.8907C34.0122 62.2972 34.0792 62.887 34.4858 63.2086C34.8924 63.5348 35.4821 63.4678 35.8038 63.0612C38.7302 59.4066 38.6989 54.1302 35.7278 50.5068C33.007 47.1873 28.4722 45.9765 24.5004 47.4375L18.4912 41.4283V9.21585C18.4912 6.99984 20.2962 5.19934 22.5122 5.19934C24.7282 5.19934 26.5287 7.00431 26.5287 9.21585V33.3864C26.5287 33.9046 26.9487 34.3246 27.4669 34.3246H28.1282C28.6464 34.3246 29.0664 33.9046 29.0664 33.3864V5.96779C29.0664 3.75179 30.8714 1.95129 33.0829 1.95129C35.2944 1.95129 37.0994 3.75626 37.0994 5.96779V33.3909C37.0994 33.9091 37.5194 34.3291 38.0377 34.3291H38.6989C39.2171 34.3291 39.6371 33.9091 39.6371 33.3909V10.7394C39.6371 8.52335 41.4376 6.72284 43.6536 6.72284C45.8696 6.72284 47.6701 8.52335 47.6701 10.7394V33.3864C47.6701 33.9046 48.0901 34.3246 48.6083 34.3246H49.0819C49.6002 34.3246 50.0202 33.9046 50.0202 33.3864V18.0888C50.0202 16.5608 51.2667 15.3143 52.7946 15.3143C54.3226 15.3143 55.5691 16.5608 55.5691 18.0888V54.1034C55.5691 58.2941 53.2816 62.1498 49.5957 64.1603Z" fill="#202030"/>
</svg>
