<svg width="60" height="85" viewBox="0 0 60 85" fill="none" xmlns="http://www.w3.org/2000/svg">
<path d="M53.4874 6.83959C50.8971 6.83959 48.7978 8.93888 48.7978 11.5291V18.6735H48.1996V9.712C48.1996 6.2527 45.395 3.45365 41.9413 3.45365C38.482 3.45365 35.6829 6.25834 35.6829 9.712V18.6735H34.8477V7.44342C34.8477 3.98411 32.043 1.18507 28.5894 1.18507C25.1301 1.18507 22.331 3.98976 22.331 7.44342V18.6678H21.4958V8.80344C21.4958 5.34414 18.6911 2.54509 15.2375 2.54509C11.7838 2.54509 8.97912 5.34978 8.97912 8.80344V20.1915C6.5751 20.1915 4.45889 21.766 3.76477 24.0684L1.77835 30.6484C0.531192 34.7793 1.3156 39.2487 3.88328 42.7137L11.496 53.3455C11.7556 53.7462 12.0321 54.1356 12.3256 54.5081L12.3764 54.5758C12.3764 54.5758 12.3876 54.5871 12.3933 54.5927C15.2601 58.1818 19.6731 60.4842 24.6222 60.4842H42.5395C51.1793 60.4842 58.1882 53.481 58.1882 44.8355V11.5291C58.1882 8.93888 56.0889 6.83959 53.4987 6.83959H53.4874Z" fill="#F0C6BF"/>
<path d="M15.2262 2.53945C11.7669 2.53945 8.96784 5.34414 8.96784 8.79781V13.5381C8.96784 10.0788 11.7725 7.27977 15.2262 7.27977C18.6855 7.27977 21.4846 10.0845 21.4846 13.5381V8.79781C21.4846 5.3385 18.6799 2.53945 15.2262 2.53945Z" fill="#FFFFFC"/>
<path d="M28.5837 1.18507C25.1244 1.18507 22.3254 3.98976 22.3254 7.44342V12.1837C22.3254 8.72444 25.1301 5.92539 28.5837 5.92539C32.0374 5.92539 34.8421 8.73008 34.8421 12.1837V7.44342C34.8421 3.98411 32.0374 1.18507 28.5837 1.18507Z" fill="#FFFFFC"/>
<path d="M41.9413 3.44801C38.482 3.44801 35.6829 6.2527 35.6829 9.70637V14.4467C35.6829 10.9874 38.4876 8.18834 41.9413 8.18834C45.395 8.18834 48.1997 10.993 48.1997 14.4467V9.70637C48.1997 6.24706 45.395 3.44801 41.9413 3.44801Z" fill="#FFFFFC"/>
<path d="M19.4417 37.1607C18.9507 37.2905 18.4993 37.426 18.093 37.5727C17.8785 37.6517 17.6697 37.7307 17.4609 37.8266V42.5669C21.9416 40.5749 27.4438 41.5963 30.8749 45.6425C32.1333 47.121 32.9347 48.8592 33.3128 50.665C34.0182 47.296 33.2168 43.6561 30.8749 40.9022C27.9348 37.4372 23.4766 36.1957 19.4417 37.1607Z" fill="#FFFFFC"/>
<path d="M1.76706 35.3887L3.75348 28.8087C4.4476 26.5063 6.56946 24.9318 8.96784 24.9318H31.3546C33.3241 24.9318 35.017 26.1282 35.7507 27.8324C35.999 26.9239 36.1344 25.9645 36.1344 24.9713C36.1344 22.3303 33.9956 20.1915 31.3546 20.1915H8.96784C6.56382 20.1915 4.4476 21.766 3.75348 24.0684L1.76706 30.6484C1.14066 32.7195 1.0278 34.8809 1.39461 36.9576C1.4849 36.4327 1.60905 35.9079 1.76706 35.3944V35.3887Z" fill="#FFFFFC"/>
<path d="M30.8467 60.4899C33.2056 57.7303 34.0295 54.0735 33.3184 50.6819C32.929 52.5329 32.0938 54.2992 30.7903 55.7947C26.3829 60.868 17.0377 59.2483 12.3651 54.5757L11.338 53.1424C12.7657 55.4222 14.7634 57.3071 17.128 58.5994V83.74H50.0168V58.5824C47.7933 59.7957 45.2426 60.4842 42.5338 60.4842H30.8467V60.4899Z" fill="#E9A796"/>
<path d="M41.6366 30.101C45.2313 30.2703 48.1997 27.4036 48.1997 23.8483V19.108C48.1997 22.6689 45.2313 25.53 41.6366 25.3607C38.2675 25.2027 35.6773 22.3021 35.6773 18.9274V23.6677C35.6773 27.0368 38.2675 29.9374 41.6366 30.101Z" fill="#E9A796"/>
<path d="M17.4609 37.8266C21.4338 36.0603 26.1967 36.6641 29.6221 39.6381C33.4539 37.9846 36.1344 34.1698 36.1344 29.7342C36.1344 29.0627 35.9933 28.425 35.745 27.8437C34.4866 32.4035 30.3106 35.7555 25.3502 35.7555H9.96669L11.4114 37.8266H17.4666H17.4609Z" fill="#E9A796"/>
<path d="M53.177 25.3551C50.6827 25.1914 48.7978 23.0131 48.7978 20.5132V25.2535C48.7978 27.7534 50.6827 29.9317 53.177 30.0954C55.9083 30.2703 58.1769 28.109 58.1769 25.4171V20.6768C58.1769 23.3686 55.9083 25.5357 53.177 25.3551Z" fill="#E9A796"/>
<path d="M53.4874 6.83959C50.8971 6.83959 48.7978 8.93888 48.7978 11.5291V16.2694C48.7978 13.6792 50.8971 11.5799 53.4874 11.5799C56.0776 11.5799 58.1769 13.6792 58.1769 16.2694V11.5291C58.1769 8.93888 56.0776 6.83959 53.4874 6.83959Z" fill="#FFFFFC"/>
<path d="M53.4874 5.65453C51.738 5.65453 50.1691 6.42765 49.0913 7.64659C48.194 4.54281 45.3329 2.26294 41.9413 2.26294C39.3793 2.26294 37.1163 3.56653 35.7732 5.54166C34.9268 2.35887 32.0318 0 28.5837 0C25.3558 0 22.6132 2.06543 21.5805 4.93784C20.2713 2.7934 17.918 1.35438 15.2262 1.35438C11.1179 1.35438 7.77712 4.69518 7.77712 8.80346V19.108C5.34488 19.5425 3.34717 21.2863 2.61355 23.7242L0.627129 30.3042C-0.721606 34.768 0.136167 39.672 2.90136 43.4022L10.4972 54.0115C10.768 54.4234 11.0558 54.8297 11.3606 55.2135L11.3944 55.2643C11.4226 55.3094 11.4565 55.3489 11.496 55.3884C12.7488 56.9459 14.2443 58.2495 15.9372 59.271V83.7401C15.9372 84.3947 16.4677 84.9251 17.1223 84.9251H50.0111C50.6657 84.9251 51.1962 84.3947 51.1962 83.7401V59.271C56.2469 56.2293 59.3563 50.7666 59.3563 44.8412V11.5291C59.3563 8.28992 56.721 5.65453 53.4817 5.65453H53.4874ZM49.9829 11.5291C49.9829 9.59915 51.5574 8.02469 53.4874 8.02469C55.4174 8.02469 56.9918 9.59915 56.9918 11.5291V20.6768C56.9918 21.6531 56.5968 22.5617 55.8857 23.2332C55.1691 23.9048 54.2379 24.2377 53.256 24.17C51.4219 24.0515 49.9886 22.4432 49.9886 20.5132V11.5235L49.9829 11.5291ZM36.8624 9.71202C36.8624 6.91297 39.1366 4.63874 41.9357 4.63874C44.7347 4.63874 47.0089 6.91297 47.0089 9.71202V19.108C47.0089 20.5075 46.4502 21.8111 45.4345 22.7818C44.4187 23.7468 43.0869 24.2434 41.6817 24.1813C39.0181 24.0571 36.8511 21.7039 36.8511 18.9331V9.71202H36.8624ZM23.5048 7.44908C23.5048 4.65003 25.7847 2.3758 28.5781 2.3758C31.3715 2.3758 33.6514 4.65567 33.6514 7.44908V19.108C33.6514 19.2265 33.6457 19.345 33.6344 19.4692C32.929 19.1757 32.1559 19.0121 31.3433 19.0121H23.5048C23.5048 19.0121 23.5048 18.9613 23.5048 18.9331V7.44908ZM10.1473 8.80346C10.1473 6.00441 12.4271 3.73018 15.2206 3.73018C18.014 3.73018 20.2938 6.01005 20.2938 8.80346V19.0064H10.1473C10.1473 19.0064 10.1473 18.9556 10.1473 18.9274V8.80346ZM49.4412 57.5441C49.0631 57.7529 48.8261 58.1536 48.8261 58.5825V82.555H18.3074V58.5825C18.3074 58.148 18.0704 57.7473 17.6923 57.5441C15.9993 56.6186 14.5208 55.3771 13.3075 53.8591C13.2962 53.8478 13.2906 53.8365 13.2793 53.8252C13.2793 53.8252 13.2567 53.7914 13.2454 53.7801C12.9745 53.4359 12.715 53.0747 12.4779 52.7079C12.4666 52.6909 12.4554 52.6797 12.4497 52.6627L4.8257 42.0139C2.4894 38.865 1.77271 34.7454 2.907 30.9983L4.89342 24.4183C5.44081 22.6068 7.083 21.3879 8.97348 21.3879H31.3602C33.341 21.3879 34.955 23.0019 34.955 24.9826C34.955 30.276 30.6492 34.5818 25.3558 34.5818H10.6439C9.98927 34.5818 9.4588 35.1122 9.4588 35.7669C9.4588 36.4215 9.98927 36.9519 10.6439 36.9519H15.7284L16.4 38.3515C16.6765 38.9271 17.365 39.181 17.9519 38.9214C22.1561 37.0479 26.9924 38.1596 29.9833 41.681C33.2281 45.5015 33.1943 51.2406 29.9043 55.0272C29.4754 55.5239 29.5262 56.2688 30.0228 56.6976C30.2485 56.8952 30.525 56.9855 30.8015 56.9855C31.1345 56.9855 31.4618 56.85 31.6988 56.5791C35.7507 51.9178 35.7958 44.8468 31.7948 40.1404C30.542 38.6675 29.0296 37.5388 27.3761 36.777C33.0193 35.8177 37.3308 30.8911 37.3308 24.977C37.3308 24.9544 37.3308 24.9318 37.3308 24.9093C38.5102 25.8686 39.9831 26.4724 41.5971 26.5515C41.7212 26.5571 41.8397 26.5627 41.9582 26.5627C43.8826 26.5627 45.6941 25.8404 47.0936 24.503C47.5281 24.091 47.8949 23.6283 48.2109 23.1429C49.1026 25.0503 50.9423 26.4104 53.1093 26.5515C53.2391 26.5627 53.3745 26.5627 53.5043 26.5627C54.7797 26.5627 55.993 26.1564 57.0031 25.4002V44.8525C57.0031 50.1458 54.1138 55.016 49.4581 57.5554L49.4412 57.5441Z" fill="#202030"/>
</svg>
