<svg width="60" height="86" viewBox="0 0 60 86" fill="none" xmlns="http://www.w3.org/2000/svg">
<path d="M50.4486 23.9641C48.3927 23.9641 46.7265 25.6303 46.7265 27.6861V33.3566H46.2517V26.2439C46.2517 23.4982 44.0257 21.2766 41.2845 21.2766C38.5433 21.2766 36.3172 23.5027 36.3172 26.2439V33.3566H35.4125L36.3351 6.2315C36.4292 3.49033 34.2793 1.1881 31.5381 1.09404C28.7969 0.999977 26.4947 3.14992 26.4006 5.8911L25.4645 33.3566H25.1599C25.151 33.2178 25.1375 33.0744 25.1151 32.9356L21.1736 8.85175C20.7301 6.14192 18.1771 4.30551 15.4673 4.74894C12.7574 5.19237 10.921 7.74542 11.3644 10.4552L15.1134 33.3611V34.4674C13.2053 34.4674 11.5257 35.7171 10.9748 37.5445L9.39814 42.7671C8.40827 46.0458 9.03086 49.5932 11.0688 52.3433L16.7169 60.2309C18.8489 64.0023 22.8935 66.5508 27.5338 66.5508H41.7548C48.6122 66.5508 54.1752 60.9924 54.1752 54.1305V27.6906C54.1752 25.6347 52.509 23.9685 50.4531 23.9685L50.4486 23.9641Z" fill="#F0C6BF"/>
<path d="M50.4484 23.9641C48.3925 23.9641 46.7263 25.6303 46.7263 27.6862V31.4486C46.7263 29.3927 48.3925 27.7265 50.4484 27.7265C52.5043 27.7265 54.1705 29.3927 54.1705 31.4486V27.6862C54.1705 25.6303 52.5043 23.9641 50.4484 23.9641Z" fill="#FFFFFC"/>
<path d="M41.2844 21.2766C38.5387 21.2766 36.3171 23.5027 36.3171 26.2439V30.0063C36.3171 27.2606 38.5432 25.039 41.2844 25.039C44.0256 25.039 46.2517 27.2651 46.2517 30.0063V26.2439C46.2517 23.4982 44.0256 21.2766 41.2844 21.2766Z" fill="#FFFFFC"/>
<path d="M11.9914 14.2177C11.5479 11.5079 13.3843 8.95485 16.0942 8.51142C18.7502 8.07696 21.254 9.83722 21.7691 12.4575L21.1779 8.85183C20.7345 6.14201 18.1814 4.3056 15.4716 4.74902C12.7618 5.19245 10.9253 7.74551 11.3688 10.4553L11.9914 14.2177Z" fill="#FFFFFC"/>
<path d="M31.5379 1.09855C28.7968 1.00449 26.4945 3.15444 26.4005 5.89561L26.2795 9.46542C26.4721 6.81382 28.7206 4.76689 31.3991 4.86095C34.1403 4.95501 36.2902 7.25277 36.1962 9.99842L36.335 6.23602C36.4291 3.49484 34.2791 1.19261 31.5379 1.09855Z" fill="#FFFFFC"/>
<path d="M23.4264 47.9359C23.0367 48.0389 22.6784 48.1464 22.3559 48.2629C22.1857 48.3256 22.02 48.3883 21.8542 48.4644V52.2268C25.4106 50.6457 29.7777 51.4564 32.5009 54.6679C33.4998 55.8414 34.1358 57.221 34.4359 58.6543C34.9958 55.9803 34.3598 53.0913 32.5009 50.9055C30.1674 48.1554 26.6289 47.17 23.4264 47.9359Z" fill="#FFFFFC"/>
<path d="M9.39813 46.5251L10.9748 41.3025C11.5257 39.4751 13.2098 38.2254 15.1134 38.2254H32.8818C34.445 38.2254 35.7887 39.175 36.371 40.5276C36.568 39.8065 36.6755 39.0451 36.6755 38.2568C36.6755 36.1606 34.978 34.463 32.8818 34.463H15.1134C13.2053 34.463 11.5257 35.7127 10.9748 37.5401L9.39813 42.7627C8.90096 44.4065 8.81138 46.122 9.10252 47.7703C9.17418 47.3537 9.27272 46.9372 9.39813 46.5296V46.5251Z" fill="#FFFFFC"/>
<path d="M32.3755 66.5464C32.3755 66.5464 32.4158 66.5061 32.4337 66.4837C34.3418 64.2889 35.0092 61.3641 34.4403 58.6498C34.1313 60.119 33.4684 61.5299 32.4337 62.7213C28.9356 66.7479 21.5183 65.4625 17.8096 61.7538L16.7167 60.2264C17.8902 62.3092 19.6505 64.0112 21.7691 65.1265C21.7109 65.0952 21.6482 65.0683 21.5899 65.0369V84.5118H47.6938V65.0369C45.9291 65.9999 43.9046 66.5464 41.7546 66.5464H32.3755Z" fill="#E99F96"/>
<path d="M50.2021 38.6643C48.2224 38.5345 46.7263 36.8055 46.7263 34.8213V38.5837C46.7263 40.5679 48.2224 42.2968 50.2021 42.4267C52.37 42.5656 54.1705 40.8501 54.1705 38.7136V34.9512C54.1705 37.0877 52.37 38.8077 50.2021 38.6643Z" fill="#E99F96"/>
<path d="M41.0424 42.4267C43.8956 42.5611 46.2516 40.2858 46.2516 37.464V33.7016C46.2516 36.5278 43.8956 38.7987 41.0424 38.6643C38.3684 38.5389 36.3126 36.2367 36.3126 33.5582V37.3206C36.3126 39.9946 38.3684 42.2968 41.0424 42.4267Z" fill="#E99F96"/>
<path d="M21.8542 48.46C24.9985 47.0626 28.7743 47.5373 31.4931 49.8844C34.5388 48.572 36.6754 45.5442 36.6754 42.0192C36.6754 41.4906 36.5679 40.9845 36.3708 40.5231C35.3764 44.1512 32.0575 46.8162 28.1159 46.8162H15.906L17.0526 48.46H21.8587H21.8542Z" fill="#E99F96"/>
<path d="M50.4485 23.0235C49.06 23.0235 47.8148 23.6326 46.9593 24.5956C46.2427 22.1366 43.9718 20.3316 41.2844 20.3316C39.448 20.3316 37.8086 21.1736 36.7247 22.486L37.2756 6.25841C37.3876 3.00662 34.8256 0.269925 31.5693 0.15347C28.3086 0.0370147 25.5719 2.60351 25.4599 5.85978L24.8015 25.2003L22.1006 8.69501C21.8453 7.13631 20.9988 5.7702 19.7178 4.85199C18.4368 3.92931 16.8736 3.5665 15.3149 3.81733C13.7562 4.07264 12.39 4.91918 11.4718 6.20019C10.5492 7.48119 10.1819 9.04438 10.4372 10.6031L14.1727 33.4328V33.603C12.2422 33.9479 10.6567 35.3319 10.0744 37.2669L8.49775 42.4894C7.42726 46.0324 8.10808 49.9247 10.3028 52.8853L15.9195 60.7326C17.0617 62.7347 18.6876 64.3965 20.6494 65.5789V84.5074C20.6494 85.027 21.0704 85.448 21.59 85.448H47.6939C48.2135 85.448 48.6345 85.027 48.6345 84.5074V65.5789C52.6433 63.1647 55.1112 58.829 55.1112 54.126V27.6862C55.1112 25.1152 53.0195 23.0235 50.4485 23.0235ZM37.2532 26.2439C37.2532 24.0223 39.0583 22.2173 41.2799 22.2173C43.5015 22.2173 45.3066 24.0223 45.3066 26.2439V33.7015C45.3066 34.8123 44.8631 35.847 44.0569 36.6174C43.2507 37.3833 42.1981 37.7775 41.0828 37.7282C38.9687 37.6297 37.2488 35.7619 37.2488 33.5627V26.2439H37.2532ZM27.3411 5.92696C27.4173 3.70536 29.2895 1.95853 31.5066 2.03915C33.7282 2.11529 35.4706 3.98306 35.3944 6.20466L34.4718 33.3298C34.4673 33.5179 34.5165 33.7015 34.6151 33.8583C34.0776 33.6478 33.4953 33.5269 32.8817 33.5269H26.3916C26.4005 33.4821 26.4095 33.4418 26.4095 33.397L27.3456 5.93144L27.3411 5.92696ZM12.296 10.303C12.1213 9.24146 12.3721 8.17545 12.9992 7.30203C13.6263 6.42862 14.5579 5.85082 15.6194 5.67614C16.681 5.50145 17.747 5.75228 18.6204 6.37935C19.4938 7.00641 20.0716 7.93806 20.2463 8.99959L24.1879 33.0834C24.2058 33.1999 24.2147 33.3119 24.2237 33.4283C24.2237 33.4597 24.2326 33.4865 24.2416 33.5179H16.0539V33.3522C16.0539 33.3029 16.0539 33.2492 16.0405 33.1999L12.296 10.303ZM47.246 64.2083C46.9459 64.3741 46.7578 64.6921 46.7578 65.0325V83.5668H22.5351V65.0325C22.5351 64.6876 22.347 64.3696 22.0469 64.2083C20.1612 63.1782 18.6025 61.6418 17.541 59.7606C17.523 59.7293 17.5051 59.7024 17.4872 59.6755L11.8302 51.7745C9.97584 49.2752 9.407 46.0055 10.3073 43.0314L11.8839 37.8088C12.3184 36.3711 13.6218 35.4036 15.1223 35.4036H32.8906C34.4628 35.4036 35.7438 36.6846 35.7438 38.2567C35.7438 42.4581 32.3263 45.8756 28.1249 45.8756H16.4481C15.9285 45.8756 15.5075 46.2966 15.5075 46.8162C15.5075 47.3358 15.9285 47.7568 16.4481 47.7568H20.4837L21.0167 48.8676C21.2362 49.3245 21.7826 49.526 22.2484 49.32C25.5853 47.8374 29.4239 48.7153 31.7978 51.5102C34.3732 54.5426 34.3463 59.0977 31.7351 62.1032C31.3946 62.4973 31.435 63.0886 31.8291 63.429C32.0083 63.5858 32.2278 63.6574 32.4472 63.6574C32.7115 63.6574 32.9713 63.5499 33.1594 63.3349C36.3753 59.6352 36.4112 54.023 33.2355 50.2875C32.2412 49.1184 31.0408 48.2226 29.7284 47.6179C34.1941 46.8565 37.6071 42.9687 37.6295 38.297C38.5656 39.0585 39.7302 39.5377 41.0156 39.6004C41.1142 39.6049 41.2082 39.6094 41.3023 39.6094C42.8297 39.6094 44.2674 39.0361 45.3782 37.9746C45.7231 37.6476 46.0143 37.2803 46.2651 36.8951C46.9728 38.409 48.4329 39.4885 50.1529 39.6004C50.2559 39.6094 50.3634 39.6094 50.4664 39.6094C51.4787 39.6094 52.4417 39.2869 53.2434 38.6867V54.126C53.2434 58.3273 50.9502 62.1928 47.255 64.2083H47.246ZM53.2345 34.9467C53.2345 35.7261 52.921 36.4427 52.3566 36.9757C51.7922 37.5087 51.0487 37.773 50.2694 37.7192C48.8137 37.6252 47.676 36.3487 47.676 34.8168V27.6817C47.676 26.1499 48.9256 24.9002 50.4575 24.9002C51.9893 24.9002 53.239 26.1499 53.239 27.6817V34.9422L53.2345 34.9467Z" fill="#202030"/>
</svg>
